<?xml version="1.0" encoding="UTF-8"?>
<svg width="280" height="280" viewBox="0 0 280 280" xmlns="http://www.w3.org/2000/svg" xmlns:xlink="http://www.w3.org/1999/xlink">
    <g id="g1">
        <g id="svg32">
            <g id="svg30">
                <g id="g28">
                    <path id="path24" fill="#45d6bb" fill-rule="evenodd" stroke="none" d="M 176.804108 244.001495 C 180.59137 243.462952 184.347473 242.724274 188.05661 241.788513 C 184.348083 240.840469 180.59201 240.089249 176.804108 239.53801 C 173.053284 238.975372 169.302429 238.56279 165.551605 238.187698 C 161.800751 237.812622 157.037201 237.587555 152.76123 237.400024 C 155.349304 235.112 157.937408 232.748993 160.45047 230.34845 C 165.553101 225.63382 170.374939 220.624115 174.891205 215.345093 C 168.882202 218.764511 163.071625 222.521362 157.487305 226.59761 C 154.074036 229.110672 150.698273 231.66124 147.397552 234.324341 C 147.397552 230.573502 146.984955 226.822662 146.572357 223.071823 C 146.234772 219.921112 145.822205 216.807938 145.259583 213.694733 C 144.704346 210.528778 143.965424 207.397797 143.04657 204.317642 C 142.122314 207.393784 141.39566 210.525879 140.871094 213.694733 C 140.308472 216.807938 139.895874 219.921112 139.558289 223.071823 C 139.145691 226.822662 138.883148 230.573502 138.733093 234.324341 C 135.432373 231.698746 132.05661 229.110672 128.643372 226.59761 C 123.047516 222.538162 117.237885 218.781921 111.239471 215.345093 C 115.762421 220.605957 120.57074 225.614609 125.6427 230.34845 C 128.14325 232.848999 130.731323 235.212026 133.406921 237.437531 C 129.130981 237.437531 124.817505 237.850113 120.541565 238.225204 C 116.265594 238.600281 113.039886 238.975372 109.289032 239.53801 C 105.50116 240.089249 101.745056 240.840469 98.03653 241.788513 C 101.787354 242.763733 105.538208 243.401367 109.289032 244.001495 C 113.039886 244.601639 116.79071 244.976715 120.541565 245.31427 C 124.292389 245.651871 129.130981 245.951935 133.406921 246.101974 C 130.781331 248.427495 128.193258 250.790522 125.6427 253.191055 C 120.57074 257.924866 115.762421 262.933533 111.239471 268.194397 C 117.237885 264.757568 123.047516 261.001343 128.643372 256.941895 C 132.05661 254.428802 135.394867 251.878235 138.733093 249.440216 C 138.883138 253.216054 139.145701 256.966899 139.520782 260.692749 C 140.13562 267.03656 141.315552 273.312897 143.04657 279.446899 C 144.795685 273.317139 145.975952 267.039185 146.572357 260.692749 C 146.984955 256.941895 147.247498 253.191055 147.397552 249.440216 C 150.698273 252.065796 154.074036 254.653885 157.487305 256.941895 C 163.071625 261.018127 168.882202 264.774963 174.891205 268.194397 C 170.365387 262.924072 165.544037 257.914886 160.45047 253.191055 C 157.937408 250.790527 155.349304 248.427475 152.76123 246.139465 C 157.037201 246.139465 161.275635 245.726868 165.551605 245.351791 C 169.827545 244.976715 173.053284 244.564117 176.804108 244.001495"/>
                    <path id="path26" fill="#45d6bb" fill-rule="evenodd" stroke="none" d="M 250.170502 97.756348 C 263.11087 71.500488 263.523468 35.229889 234.567017 18.651184 C 207.89856 3.385284 170.390198 3.647827 130.518768 12.012207 C 104.487966 16.788269 64.904134 30.603856 11.767273 53.458969 C 42.274089 38.130549 67.117137 26.753001 86.296417 19.326324 C 119.155975 5.835083 154.374237 -0.973969 189.894531 -0.703125 C 241.656097 0.797211 285.578369 30.991455 259.960175 94.155548 C 244.531728 132.339071 210.836711 174.260925 158.875122 219.921112 C 204.160217 174.235921 234.59201 133.514333 250.170502 97.756348 Z"/>
                </g>
            </g>
        </g>
    </g>
</svg>
